<svg xmlns="http://www.w3.org/2000/svg" width="127.47" height="40"><defs><style>.cls-1{fill:#cecece}</style></defs><g id="n_logo_white" transform="translate(-38.85 -84.18)"><path id="Path_162" d="M521.17 169.28l-1.58 9h-2.49l2.16-12.28h3.34l3.29 9.15 1.61-9.15h2.49l-2.17 12.29h-3.2z" class="cls-1" data-name="Path 162" transform="translate(-432.83 -74.05)"/><path id="Path_163" d="M669.93 165q3.33 0 4.47 1.78 1 1.56.46 4.63a7.23 7.23 0 0 1-2.66 4.82 7.06 7.06 0 0 1-4.29 1.22q-3.61 0-4.73-2.04a6.2 6.2 0 0 1-.42-4.11 7.6 7.6 0 0 1 2.63-5.02 7.52 7.52 0 0 1 4.54-1.28zm-.35 2.09a3.46 3.46 0 0 0-2.8 1.18 6.33 6.33 0 0 0-1.13 2.94c-.5 2.8.33 4.18 2.47 4.18q3.16 0 3.9-4.15a4.82 4.82 0 0 0-.21-3.16 2.4 2.4 0 0 0-2.23-1z" class="cls-1" data-name="Path 163" transform="translate(-564.52 -73.14)"/><path id="Path_164" d="M815.72 176.1l-.39 2.19h-4.27a8.74 8.74 0 0 1-2.35-.24 3.27 3.27 0 0 1-1.42-.86q-1.5-1.53-.88-5.02a9.45 9.45 0 0 1 1.28-3.47 5.48 5.48 0 0 1 2.3-2.1 7.92 7.92 0 0 1 3.35-.6h4.16l-.39 2.2h-3.84a3.79 3.79 0 0 0-2.74.93 5.08 5.08 0 0 0-1.18 2.8c-.33 1.82-.18 3.01.42 3.57a3.24 3.24 0 0 0 2.2.6z" class="cls-1" data-name="Path 164" transform="translate(-694.5 -74.05)"/><path id="Path_165" d="M938.42 168.2h-3.92l.39-2.2h10.6l-.39 2.2h-4.05l-1.78 10.09h-2.63z" class="cls-1" data-name="Path 165" transform="translate(-810.6 -74.05)"/><path id="Path_166" d="M1044.5 178.29l2.17-12.29h2.6l-2.16 12.29z" class="cls-1" data-name="Path 166" transform="translate(-910.15 -74.05)"/><path id="Path_167" d="M1112.03 165q3.33 0 4.47 1.78 1 1.56.46 4.63a7.23 7.23 0 0 1-2.66 4.82 7.06 7.06 0 0 1-4.29 1.22q-3.61 0-4.74-2.04a6.2 6.2 0 0 1-.41-4.11 7.6 7.6 0 0 1 2.63-5.02 7.52 7.52 0 0 1 4.54-1.28zm-.35 2.09a3.46 3.46 0 0 0-2.8 1.18 6.33 6.33 0 0 0-1.13 2.94c-.5 2.8.33 4.18 2.46 4.18q3.17 0 3.9-4.15a4.82 4.82 0 0 0-.2-3.16 2.4 2.4 0 0 0-2.23-1z" class="cls-1" data-name="Path 167" transform="translate(-964.64 -73.14)"/><path id="Path_168" d="M1249.57 169.28l-1.58 9h-2.49l2.17-12.28h3.33l3.29 9.15 1.61-9.15h2.49l-2.17 12.29h-3.2z" class="cls-1" data-name="Path 168" transform="translate(-1092.06 -74.05)"/><path id="Path_169" d="M510.04 341.57l-.56 3.2h-.88l.77-4.37h1.19l1.16 3.26.57-3.26h.89l-.77 4.37h-1.14z" class="cls-1" data-name="Path 169" transform="translate(-425.14 -231.89)"/><path id="Path_170" d="M564.37 340.31l-.13.78h-1.22a2.6 2.6 0 0 0-.7.07.93.93 0 0 0-.4.25.85.85 0 0 0-.19.26 3.38 3.38 0 0 0-.14.45h2.46l-.13.78h-2.46a.9.9 0 0 0 .19.78 1.36 1.36 0 0 0 .91.22h1.18l-.14.78h-1.21a4.13 4.13 0 0 1-1.04-.1 1.15 1.15 0 0 1-.57-.34 2.08 2.08 0 0 1-.3-1.77 2.76 2.76 0 0 1 1-1.78 1.81 1.81 0 0 1 .57-.3 2.64 2.64 0 0 1 .74-.08h1.58z" class="cls-1" data-name="Path 170" transform="translate(-472.03 -231.8)"/><path id="Path_171" d="M607.3 341.18h-1.4l.13-.78h3.77l-.13.78h-1.44l-.64 3.59h-.93z" class="cls-1" data-name="Path 171" transform="translate(-513.2 -231.89)"/><path id="Path_172" d="M652.06 340.4l.4 3.29 1.49-3.29h1.04l.35 3.29 1.56-3.29h.96l-2.19 4.37h-1.05l-.35-3.16-1.47 3.16h-1.06l-.64-4.37z" class="cls-1" data-name="Path 172" transform="translate(-554.1 -231.89)"/><path id="Path_173" d="M722.55 340a1.76 1.76 0 0 1 1.6.64 2.28 2.28 0 0 1 .17 1.64 2.6 2.6 0 0 1-.96 1.72 2.54 2.54 0 0 1-1.52.43 1.77 1.77 0 0 1-1.7-.73 2.18 2.18 0 0 1-.15-1.46 2.67 2.67 0 0 1 .94-1.78 2.76 2.76 0 0 1 1.62-.46zm-.12.74a1.25 1.25 0 0 0-1 .42 2.26 2.26 0 0 0-.4 1.04c-.17 1 .11 1.5.87 1.5s1.22-.5 1.39-1.48a1.7 1.7 0 0 0-.08-1.12.85.85 0 0 0-.78-.36z" class="cls-1" data-name="Path 173" transform="translate(-616.4 -231.53)"/><path id="Path_174" d="M771.33 343.2l-.3 1.67h-.93l.77-4.37H773a2.22 2.22 0 0 1 1.23.24.92.92 0 0 1 .34.98 1.62 1.62 0 0 1-.48.95 1.64 1.64 0 0 1-.57.32c.46.13.65.53.58 1.21a2.23 2.23 0 0 0-.01.67h-1.05a1.6 1.6 0 0 1 0-.22l.02-.4a1.07 1.07 0 0 0-.17-.82 1.2 1.2 0 0 0-.84-.22h-.74zm.14-.78h1.3a.87.87 0 0 0 .47-.1.7.7 0 0 0 .3-.5c.04-.26-.03-.43-.22-.51a1.05 1.05 0 0 0-.35-.04h-1.3z" class="cls-1" data-name="Path 174" transform="translate(-661.8 -231.98)"/><path id="Path_175" d="M822.6 340.4l-.77 4.37h-.93l.77-4.37zm-.35 2.16l2.05-2.16h1.22l-2.2 2.16 1.34 2.2h-1.22z" class="cls-1" data-name="Path 175" transform="translate(-707.78 -231.89)"/><path id="Path_176" d="M886.3 344.77l.77-4.37h.93l-.77 4.37z" class="cls-1" data-name="Path 176" transform="translate(-766.97 -231.89)"/><path id="Path_177" d="M908.05 341.57l-.57 3.2h-.88l.77-4.37h1.19l1.16 3.26.57-3.26h.89l-.77 4.37h-1.14z" class="cls-1" data-name="Path 177" transform="translate(-785.34 -231.89)"/><path id="Path_178" d="M961.2 341.18h-1.4l.13-.78h3.77l-.13.78h-1.44l-.64 3.59h-.93z" class="cls-1" data-name="Path 178" transform="translate(-833.5 -231.89)"/><path id="Path_179" d="M1004.17 340.31l-.13.78h-1.22a2.6 2.6 0 0 0-.7.07.93.93 0 0 0-.4.25.85.85 0 0 0-.19.26 3.38 3.38 0 0 0-.14.45h2.46l-.13.78h-2.46a.9.9 0 0 0 .19.78 1.36 1.36 0 0 0 .91.22h1.18l-.13.78h-1.22a4.13 4.13 0 0 1-1.04-.1 1.15 1.15 0 0 1-.57-.34 2.08 2.08 0 0 1-.3-1.77 2.76 2.76 0 0 1 1-1.78 1.81 1.81 0 0 1 .57-.3 2.64 2.64 0 0 1 .74-.08h1.58z" class="cls-1" data-name="Path 179" transform="translate(-870.07 -231.8)"/><path id="Path_180" d="M1045.76 340.4h.93l-.43 2.45a3.34 3.34 0 0 0-.07.63.45.45 0 0 0 .44.48 4.48 4.48 0 0 0 .6.03h.9l-.13.78h-.99a4.4 4.4 0 0 1-1-.08.98.98 0 0 1-.72-.72 3.12 3.12 0 0 1 .05-1.12z" class="cls-1" data-name="Path 180" transform="translate(-910.84 -231.89)"/><path id="Path_181" d="M1083.95 340.4h.94l-.43 2.45a3.35 3.35 0 0 0-.07.63.45.45 0 0 0 .44.48 4.48 4.48 0 0 0 .6.03h.9l-.13.78h-.99a4.39 4.39 0 0 1-1-.08.98.98 0 0 1-.72-.72 3.12 3.12 0 0 1 .04-1.12z" class="cls-1" data-name="Path 181" transform="translate(-945.4 -231.89)"/><path id="Path_182" d="M1119.2 344.77l.77-4.37h.93l-.77 4.37z" class="cls-1" data-name="Path 182" transform="translate(-977.76 -231.89)"/><path id="Path_183" d="M1142.37 342.08h2.14l-.45 2.6h-1.96a3.42 3.42 0 0 1-.8-.08 1.19 1.19 0 0 1-.5-.27 1.93 1.93 0 0 1-.36-1.83 2.7 2.7 0 0 1 1-1.83 2.53 2.53 0 0 1 1.46-.37h1.9l-.13.78h-1.8a1.32 1.32 0 0 0-.95.31 1.84 1.84 0 0 0-.45 1.03 1.64 1.64 0 0 0 .09 1.2 1.02 1.02 0 0 0 .85.27h.83l.18-1.03h-1.21z" class="cls-1" data-name="Path 183" transform="translate(-996.93 -231.8)"/><path id="Path_184" d="M1193.67 340.31l-.13.78h-1.22a2.6 2.6 0 0 0-.7.07.93.93 0 0 0-.4.25.85.85 0 0 0-.19.26 3.37 3.37 0 0 0-.14.45h2.46l-.13.78h-2.46a.9.9 0 0 0 .19.78 1.36 1.36 0 0 0 .91.22h1.18l-.13.78h-1.22a4.13 4.13 0 0 1-1.04-.1 1.15 1.15 0 0 1-.57-.34 2.08 2.08 0 0 1-.3-1.77 2.76 2.76 0 0 1 1-1.78 1.81 1.81 0 0 1 .57-.3 2.64 2.64 0 0 1 .74-.08h1.58z" class="cls-1" data-name="Path 184" transform="translate(-1041.57 -231.8)"/><path id="Path_185" d="M1233.75 341.57l-.57 3.2h-.88l.77-4.37h1.19l1.16 3.26.57-3.26h.89l-.77 4.37h-1.14z" class="cls-1" data-name="Path 185" transform="translate(-1080.12 -231.89)"/><path id="Path_186" d="M1287.42 343.99l-.14.78h-1.52a3.17 3.17 0 0 1-.83-.09 1.2 1.2 0 0 1-.5-.3 2 2 0 0 1-.31-1.78 3.34 3.34 0 0 1 .45-1.24 1.96 1.96 0 0 1 .82-.74 2.85 2.85 0 0 1 1.19-.22h1.48l-.14.78h-1.36a1.39 1.39 0 0 0-.98.34 1.81 1.81 0 0 0-.42 1c-.11.64-.06 1.07.15 1.27a1.13 1.13 0 0 0 .78.2z" class="cls-1" data-name="Path 186" transform="translate(-1126.95 -231.89)"/><path id="Path_187" d="M1331.27 340.31l-.13.78h-1.22a2.6 2.6 0 0 0-.7.07.93.93 0 0 0-.4.25.85.85 0 0 0-.19.26 3.38 3.38 0 0 0-.14.45h2.46l-.13.78h-2.46a.9.9 0 0 0 .19.78 1.36 1.36 0 0 0 .91.22h1.18l-.14.78h-1.21a4.13 4.13 0 0 1-1.03-.1 1.15 1.15 0 0 1-.58-.34 2.08 2.08 0 0 1-.3-1.77 2.76 2.76 0 0 1 1-1.78 1.81 1.81 0 0 1 .57-.3 2.64 2.64 0 0 1 .74-.08h1.58z" class="cls-1" data-name="Path 187" transform="translate(-1166.1 -231.8)"/><path id="SVGID_1_" fill="#ff8400" d="M39.57 107.72c.05.17 4.1-10.1 9.63-12.14 7.4-2.73 10.47 13.78 16.35 11.08 4.96-2.29 8.5-11.82 8.43-11.96a18.46 18.46 0 0 0-34.4 13.01"/><path id="SVGID_3_" fill="#565656" d="M92.2 224.68c-.05-.17-4.1 10.1-9.63 12.14-7.4 2.72-10.47-13.78-16.35-11.09-4.96 2.3-8.5 11.83-8.43 11.97a18.46 18.46 0 0 0 34.41-13.02" transform="translate(-17.14 -127.16)"/></g></svg>